<svg xmlns="http://www.w3.org/2000/svg" viewBox="0 0 100 100">
  <rect width="100" height="100" rx="22" fill="#8FA98E"/>
  <g fill="none" stroke="#ffffff" stroke-width="3.5" stroke-linecap="round" stroke-linejoin="round">
    <path d="M50 80 C50 80, 18 58, 18 36 C18 24, 27 17, 35 17 C42 17, 48 21, 50 26 C52 21, 58 17, 65 17 C73 17, 82 24, 82 36 C82 58, 50 80, 50 80 Z" />
    <path d="M35 47 L50 32 L65 47" />
    <path d="M39 47 L39 62 L61 62 L61 47" />
    <path d="M46 62 L46 54 L54 54 L54 62" />
  </g>
</svg>
